<?xml version="1.0" encoding="utf-8"?>
<!-- Generator: Adobe Illustrator 25.2.1, SVG Export Plug-In . SVG Version: 6.00 Build 0)  -->
<svg version="1.1" id="Layer_1" xmlns="http://www.w3.org/2000/svg" xmlns:xlink="http://www.w3.org/1999/xlink" x="0px" y="0px"
	 viewBox="0 0 40 40" style="enable-background:new 0 0 40 40;" xml:space="preserve">
<style type="text/css">
	.st0{fill:#FFFFFF;}
</style>
<path class="st0" d="M20,40C9,40,0,31,0,20C0,12,4.8,4.7,12.2,1.6c10.2-4.3,21.9,0.5,26.2,10.7c4.3,10.2-0.5,21.8-10.6,26.1
	C25.3,39.5,22.7,40,20,40z M15,17.8V21h2.7v8H21v-8.1h2.6l0.4-3.2h-3v-2.2c0-0.4,0.1-0.8,0.3-1.1c0.4-0.3,0.8-0.5,1.3-0.4h1.7v-2.8
	C23.5,11,22.6,11,21.8,11c-1.1,0-2.2,0.3-3,1.1c-0.8,0.8-1.2,2-1.1,3.1v2.5H15z"/>
</svg>
