<?xml version="1.0" encoding="utf-8"?>
<!-- Generator: Adobe Illustrator 25.2.1, SVG Export Plug-In . SVG Version: 6.00 Build 0)  -->
<svg version="1.1" id="Layer_1" xmlns="http://www.w3.org/2000/svg" xmlns:xlink="http://www.w3.org/1999/xlink" x="0px" y="0px"
	 viewBox="0 0 40 40" style="enable-background:new 0 0 40 40;" xml:space="preserve">
<style type="text/css">
	.st0{fill:#FFFFFF;}
</style>
<path class="st0" d="M20,40C9,40,0,31,0,20C0,12,4.8,4.7,12.2,1.6c10.2-4.3,21.9,0.5,26.2,10.7c4.3,10.2-0.5,21.8-10.6,26.1
	C25.3,39.5,22.7,40,20,40z M20,11c-1.7,0-3,0-3.8,0.1c-0.7,0-1.3,0.1-2,0.3c-1.3,0.5-2.4,1.5-2.9,2.9c-0.2,0.6-0.3,1.3-0.3,2
	c0,0.8-0.1,2-0.1,3.8s0,3,0.1,3.8c0,0.7,0.1,1.3,0.3,2c0.2,0.7,0.6,1.3,1.1,1.7c0.5,0.5,1.1,0.9,1.7,1.1c0.6,0.2,1.3,0.4,2,0.4
	c0.7,0,2,0.1,3.8,0.1s3,0,3.8-0.1c0.7,0,1.3-0.1,2-0.3c1.3-0.5,2.4-1.5,2.9-2.9c0.2-0.6,0.3-1.3,0.3-2c0-0.7,0.1-2,0.1-3.8
	s0-3,0-3.7c0-0.7-0.2-1.4-0.4-2c-0.5-1.3-1.5-2.4-2.9-2.9c-0.6-0.2-1.3-0.3-2-0.3C23,11,21.7,11,20,11z M20.6,27.4h-1.3
	c-1.1,0-1.9,0-2.5,0c-0.7,0-1.5-0.1-2.2-0.3c-0.8-0.3-1.4-0.9-1.7-1.7c-0.2-0.7-0.3-1.4-0.3-2.2c0-0.6,0-1.4,0-2.5v-1.3
	c0-1.1,0-1.9,0-2.5c0-0.7,0.1-1.5,0.3-2.2c0.3-0.8,0.9-1.4,1.7-1.7c0.7-0.2,1.4-0.3,2.2-0.3c0.6,0,1.4,0,2.5,0h1.3
	c1.1,0,1.9,0,2.5,0c0.7,0,1.5,0.1,2.2,0.3c0.8,0.3,1.4,0.9,1.7,1.7c0.2,0.7,0.3,1.4,0.3,2.2c0,0.6,0,1.4,0,2.5v1.3
	c0,1.1,0,1.9,0,2.5c0,0.7-0.1,1.5-0.3,2.2c-0.3,0.8-0.9,1.4-1.7,1.7c-0.7,0.2-1.4,0.3-2.2,0.3C22.6,27.4,21.7,27.4,20.6,27.4
	L20.6,27.4z M20,15.4c-0.8,0-1.6,0.2-2.3,0.6c-0.7,0.4-1.3,1-1.7,1.7c-0.8,1.4-0.8,3.2,0,4.6c0.4,0.7,1,1.3,1.7,1.7
	c1.4,0.8,3.2,0.8,4.6,0c0.7-0.4,1.3-1,1.7-1.7c0.8-1.4,0.8-3.2,0-4.6c-0.4-0.7-1-1.3-1.7-1.7C21.6,15.6,20.8,15.4,20,15.4z
	 M24.8,14.1c-0.6,0-1.1,0.5-1.1,1.1c0,0.6,0.5,1.1,1.1,1.1c0.3,0,0.6-0.1,0.7-0.3c0.2-0.2,0.3-0.5,0.3-0.8
	C25.9,14.6,25.4,14.1,24.8,14.1L24.8,14.1z M20,23c-1.7,0-3-1.3-3-3c0-1.7,1.3-3,3-3c1.7,0,3,1.3,3,3c0,0.8-0.3,1.6-0.9,2.1
	C21.6,22.7,20.8,23,20,23z"/>
</svg>
