<?xml version="1.0" encoding="utf-8"?>
<!-- Generator: Adobe Illustrator 25.2.1, SVG Export Plug-In . SVG Version: 6.00 Build 0)  -->
<svg version="1.1" id="Layer_1" xmlns="http://www.w3.org/2000/svg" xmlns:xlink="http://www.w3.org/1999/xlink" x="0px" y="0px"
	 viewBox="0 0 40 40" style="enable-background:new 0 0 40 40;" xml:space="preserve">
<style type="text/css">
	.st0{fill:#FFFFFF;}
</style>
<path class="st0" d="M20,40C9,40,0,31,0,20C0,12,4.8,4.7,12.2,1.6c10.2-4.3,21.9,0.5,26.2,10.7c4.3,10.2-0.5,21.8-10.6,26.1
	C25.3,39.5,22.7,40,20,40z M10,28L10,28c2.1,1.3,4.5,2,7,2c2.5,0,5-0.7,7.1-2c1.9-1.2,3.4-2.9,4.4-4.9c1-1.9,1.5-3.9,1.5-6
	c0-0.2,0-0.4,0-0.6c0.9-0.7,1.7-1.5,2.3-2.4c-0.8,0.4-1.7,0.6-2.6,0.7c0.9-0.6,1.7-1.5,2-2.5c-0.9,0.5-1.9,0.9-2.9,1.1
	c-0.4-0.4-0.9-0.8-1.5-1c-0.6-0.3-1.2-0.4-1.8-0.4c-0.8,0-1.6,0.2-2.2,0.6c-0.7,0.4-1.3,1-1.6,1.7c-0.4,0.7-0.6,1.5-0.6,2.3
	c0,0.3,0,0.7,0.1,1c-3.7-0.2-7.1-1.9-9.3-4.8c-0.8,1.4-0.9,3.1-0.1,4.5c0.4,0.6,0.9,1.2,1.5,1.6c-0.7,0-1.4-0.2-2-0.6v0.1
	c0,1,0.4,2.1,1,2.9c0.7,0.8,1.6,1.4,2.6,1.6c-0.4,0.1-0.8,0.1-1.2,0.1c-0.3,0-0.5,0-0.8,0c0.3,0.9,0.8,1.7,1.6,2.2
	c0.8,0.6,1.7,0.9,2.7,0.9c-1.6,1.3-3.6,2-5.7,1.9C10.7,28,10.3,28,10,28z"/>
</svg>
